<?xml version="1.0" encoding="utf-8"?>
<!-- Generator: Adobe Illustrator 16.0.0, SVG Export Plug-In . SVG Version: 6.00 Build 0)  -->
<!DOCTYPE svg PUBLIC "-//W3C//DTD SVG 1.1//EN" "http://www.w3.org/Graphics/SVG/1.1/DTD/svg11.dtd">
<svg version="1.1" id="Layer_1" xmlns="http://www.w3.org/2000/svg" xmlns:xlink="http://www.w3.org/1999/xlink" x="0px" y="0px"
	 width="500px" height="500px" viewBox="0 0 500 500" enable-background="new 0 0 500 500" xml:space="preserve">
<path d="M498.5,278.1c1-9.2,1.5-18.6,1.5-28.1c0-9.5-0.5-18.9-1.5-28.1L448.1,206c-3.3-15.2-8.2-29.8-14.5-43.5l31-43
	c-9.9-16.7-21.6-32.1-34.8-46.1l-49.4,18.8c-9.4-8-19.4-15.1-30.1-21.3l1.4-53.1c-18-8.1-37-14.2-56.9-17.8l-28.6,44.7
	c-5.3-0.4-10.6-0.6-15.9-0.6s-10.7,0.2-15.9,0.6L205.4,0c-19.9,3.6-39,9.7-56.9,17.8l1.4,53.1c-10.7,6.2-20.8,13.3-30.1,21.3
	L70.3,73.4C57,87.3,45.4,102.8,35.5,119.5l31,43c-6.4,13.7-11.3,28.3-14.5,43.5L1.5,221.9C0.5,231.1,0,240.5,0,250
	c0,9.5,0.5,18.9,1.5,28.1L51.9,294c3.3,15.2,8.2,29.8,14.5,43.5l-31,43c9.9,16.7,21.6,32.1,34.8,46.1l49.4-18.8
	c9.4,8,19.4,15.1,30.1,21.3l-1.4,53.1c18,8.1,37,14.2,56.9,17.8l28.6-44.7c5.3,0.4,10.6,0.6,15.9,0.6s10.7-0.2,15.9-0.6l28.6,44.7
	c19.9-3.6,39-9.7,56.9-17.8l-1.4-53.1c10.7-6.2,20.8-13.3,30.1-21.3l49.4,18.8c13.2-13.9,24.9-29.4,34.8-46.1l-31-43
	c6.4-13.7,11.3-28.3,14.5-43.5L498.5,278.1z M250,350c-55.2,0-100-44.8-100-100s44.8-100,100-100s100,44.8,100,100
	S305.2,350,250,350z"/>
</svg>
