<?xml version="1.0" encoding="utf-8"?>
<!-- Generator: Adobe Illustrator 16.0.0, SVG Export Plug-In . SVG Version: 6.00 Build 0)  -->
<!DOCTYPE svg PUBLIC "-//W3C//DTD SVG 1.1//EN" "http://www.w3.org/Graphics/SVG/1.1/DTD/svg11.dtd">
<svg version="1.1" id="Layer_1" xmlns="http://www.w3.org/2000/svg" xmlns:xlink="http://www.w3.org/1999/xlink" x="0px" y="0px"
	 width="500px" height="500px" viewBox="0 0 500 500" enable-background="new 0 0 500 500" xml:space="preserve">
<g>
	<path d="M225,223l-57.5,0.1c-2.7,8.3-4.1,17.2-4.1,26.4c0,19.2,6.3,37,16.9,51.4L225,223z"/>
	<path d="M382.8,199.7c-33.1,0.5-50.4-13.9-59.4-27.5c-7.4-18.6-6.5-41.8-6.5-41.8L184,0c0,0,14.7,54.8,15.7,117.2
		c0.5,33.1-13.9,50.4-27.5,59.4c-18.6,7.4-41.8,6.5-41.8,6.5L0,316c0,0,54.8-14.7,117.2-15.7c33.1-0.5,50.4,13.9,59.4,27.5
		c7.4,18.6,6.5,41.8,6.5,41.8L316,500c0,0-14.7-54.8-15.7-117.2c-0.5-33.1,13.9-50.4,27.5-59.4c18.6-7.4,41.8-6.5,41.8-6.5L500,184
		C500,184,445.2,198.8,382.8,199.7z M250.3,345.7c-53.2,0-96.2-43.1-96.2-96.2c0-53.2,43.1-96.2,96.2-96.2
		c53.2,0,96.2,43.1,96.2,96.2C346.6,302.6,303.5,345.7,250.3,345.7z"/>
	<path d="M260.1,215.4l-29.6-50.5c-27.2,6.3-49.6,25.5-60.3,50.8L260.1,215.4z"/>
	<path d="M284.2,241.7l30.3-50.8c-15.9-17.4-38.8-28.3-64.2-28.3c-4.1,0-8.1,0.3-12,0.8L284.2,241.7z"/>
	<path d="M213.9,257.3l-28.6,49.8c15.9,17.9,39.1,29.3,65,29.3c3,0,6-0.2,8.9-0.5L213.9,257.3z"/>
	<path d="M272.7,276.8h60.2c2.8-8.6,4.4-17.7,4.4-27.3c0-19.7-6.6-37.9-17.7-52.5L272.7,276.8z"/>
	<path d="M238,284.2l29.1,50.5c28.3-5.6,51.6-24.8,62.8-50.5H238z"/>
</g>
</svg>
